<svg width="43" height="15" viewBox="0 0 43 15" fill="none" xmlns="http://www.w3.org/2000/svg">
<path d="M9.64 0.0799992V10.44L2.78 0.0799992H0.5V14H2.78V3.62L9.64 14H11.92V0.0799992H9.64ZM19.5541 4.72C21.2541 4.72 22.5941 5.8 22.6341 7.5H16.5341C16.7741 5.76 18.0141 4.72 19.5541 4.72ZM24.7141 10.72H22.2541C21.8341 11.58 21.0541 12.26 19.6541 12.26C17.9741 12.26 16.6741 11.16 16.5141 9.34H24.9341C24.9941 8.96 25.0141 8.6 25.0141 8.22C25.0141 4.98 22.7941 2.8 19.6541 2.8C16.3941 2.8 14.1541 5.02 14.1541 8.48C14.1541 11.94 16.4941 14.18 19.6541 14.18C22.3541 14.18 24.0941 12.64 24.7141 10.72ZM32.9578 14H35.5378L31.9778 8.42L35.5378 2.98H33.1578L30.9178 6.72L28.5378 2.98H25.9578L29.5178 8.58L25.9578 14H28.3378L30.5778 10.26L32.9578 14ZM37.5983 10.94C37.5983 13.18 38.8183 14 40.7783 14H42.5783V12.1H41.1783C40.2183 12.1 39.8983 11.76 39.8983 10.94V4.84H42.5783V2.98H39.8983V0.24H37.5983V2.98H36.2983V4.84H37.5983V10.94Z" fill="white"/>
</svg>
