<svg width="43" height="15" viewBox="0 0 43 15" fill="none" xmlns="http://www.w3.org/2000/svg">
<path d="M2.78 6.5V1.96H5.3C7.08 1.96 7.88 2.8 7.88 4.24C7.88 5.64 7.08 6.5 5.3 6.5H2.78ZM10.22 4.24C10.22 1.98 8.6 0.099999 5.3 0.099999H0.5V14H2.78V8.36H5.3C8.92 8.36 10.22 6.22 10.22 4.24ZM14.6745 8.2C14.6745 5.86 15.7145 5.16 17.3945 5.16H17.9745V2.8C16.4145 2.8 15.3145 3.48 14.6745 4.58V2.98H12.3945V14H14.6745V8.2ZM24.7103 4.72C26.4103 4.72 27.7503 5.8 27.7903 7.5H21.6903C21.9303 5.76 23.1703 4.72 24.7103 4.72ZM29.8703 10.72H27.4103C26.9903 11.58 26.2103 12.26 24.8103 12.26C23.1303 12.26 21.8303 11.16 21.6703 9.34H30.0903C30.1503 8.96 30.1703 8.6 30.1703 8.22C30.1703 4.98 27.9503 2.8 24.8103 2.8C21.5503 2.8 19.3103 5.02 19.3103 8.48C19.3103 11.94 21.6503 14.18 24.8103 14.18C27.5103 14.18 29.2503 12.64 29.8703 10.72ZM31.1141 2.98L35.2941 14H38.0141L42.2141 2.98H39.7941L36.6741 11.96L33.5541 2.98H31.1141Z" fill="white"/>
</svg>
